<?xml version="1.0" encoding="utf-8"?>
<!-- Generator: Adobe Illustrator 25.4.1, SVG Export Plug-In . SVG Version: 6.00 Build 0)  -->
<svg version="1.1" id="Capa_1" xmlns="http://www.w3.org/2000/svg" xmlns:xlink="http://www.w3.org/1999/xlink" x="0px" y="0px"
	 viewBox="0 0 150 150" style="enable-background:new 0 0 150 150;" xml:space="preserve">
<style type="text/css">
	.st0{fill:url(#SVGID_1_);}
	.st1{fill:url(#SVGID_00000108288244115242150750000001507328651207165872_);}
	.st2{fill:url(#SVGID_00000062900656369645486140000007684458196826109068_);}
	.st3{fill:url(#SVGID_00000013881627430627325340000009951960103233600161_);}
</style>
<g>
	<g>
		<linearGradient id="SVGID_1_" gradientUnits="userSpaceOnUse" x1="34.826" y1="87.5587" x2="115.174" y2="87.5587">
			<stop  offset="0" style="stop-color:#FFF2A6"/>
			<stop  offset="2.112336e-02" style="stop-color:#EDD682"/>
			<stop  offset="4.863281e-02" style="stop-color:#D9B75B"/>
			<stop  offset="7.576038e-02" style="stop-color:#C99F3B"/>
			<stop  offset="0.102" style="stop-color:#BE8E25"/>
			<stop  offset="0.1271" style="stop-color:#B78418"/>
			<stop  offset="0.1495" style="stop-color:#B58013"/>
			<stop  offset="0.2295" style="stop-color:#C5972C"/>
			<stop  offset="0.3197" style="stop-color:#D3AA42"/>
			<stop  offset="0.4075" style="stop-color:#DBB54F"/>
			<stop  offset="0.4892" style="stop-color:#DEB953"/>
			<stop  offset="0.5803" style="stop-color:#DBB54F"/>
			<stop  offset="0.6752" style="stop-color:#D3AA42"/>
			<stop  offset="0.7715" style="stop-color:#C6982E"/>
			<stop  offset="0.8616" style="stop-color:#B58013"/>
			<stop  offset="0.8837" style="stop-color:#B78317"/>
			<stop  offset="0.9066" style="stop-color:#BD8D24"/>
			<stop  offset="0.93" style="stop-color:#C89D38"/>
			<stop  offset="0.9536" style="stop-color:#D6B456"/>
			<stop  offset="0.9771" style="stop-color:#E9D07B"/>
			<stop  offset="1" style="stop-color:#FFF2A6"/>
		</linearGradient>
		<path class="st0" d="M89.8,70.9c-5.3,0-10.3,1.6-14.6,4.6L75,75.7l-0.3-0.2c-3-2.1-6.4-3.5-10-4.2l-1.1-0.2l11-7.2
			c0.5-0.3,0.6-0.9,0.4-1.4l-3-8.2c-0.2-0.4-0.6-0.9-1.1-0.9H49.4c-0.5,0-0.9,0.4-1.1,0.9l-3,8.1c-0.2,0.5,0,1.1,0.4,1.4l11,7.2
			l-1.1,0.2c-12.1,2.2-20.9,12.7-20.9,25c0,14,11.4,25.4,25.4,25.4c5.3,0,10.3-1.6,14.6-4.6l0.3-0.2l0.2,0.2c4.3,3,9.3,4.6,14.6,4.6
			c14,0,25.4-11.4,25.4-25.4C115.2,82.3,103.8,70.9,89.8,70.9z M70.2,56.1l1.6,4.3l-7.3-4.3C64.5,56.1,70.2,56.1,70.2,56.1z
			 M69.8,62.2H50.7l9.6-5.6L69.8,62.2z M50.2,56.1H56l-7.4,4.3L50.2,56.1z M50.3,64h19.9l-10,6.5L50.3,64z M72.7,115.7
			c-3.7,2.4-8,3.7-12.5,3.7c-12.7,0-23.1-10.3-23.1-23.1s10.3-23.1,23.1-23.1c12.7,0,23.1,10.3,23.1,23.1c0,4.1-1.1,8.2-3.2,11.8
			l-0.3,0.5l-0.4-0.3c-1.1-1-2.1-2.1-2.9-3.4l-0.1-0.2l0.1-0.2c1.2-2.5,1.9-5.2,1.9-8c0-10-8.1-18.1-18.1-18.1
			c-10,0-18.1,8.1-18.1,18.1c0,10,8.1,18.1,18.1,18.1c3.2,0,6.4-0.9,9.2-2.5l0.3-0.2l0.2,0.3c0.8,1.1,1.8,2.1,2.8,3l0.4,0.4
			L72.7,115.7z M81.6,82.7l0.4-0.2c2.4-1.3,5.1-2.1,7.8-2.1c8.7,0,15.8,7.1,15.8,15.8c0,8.7-7.1,15.8-15.8,15.8
			c-2.7,0-5.4-0.7-7.8-2.1l-0.4-0.2l0.2-0.4c2.4-4,3.7-8.5,3.7-13.1c0-4.6-1.3-9.2-3.7-13.1L81.6,82.7z M76,96.3
			c0,1.4-0.2,2.8-0.6,4.2L75,102l-0.4-1.5c-0.4-1.4-0.6-2.8-0.6-4.2c0-1.4,0.2-2.9,0.6-4.2l0.4-1.5l0.4,1.5
			C75.8,93.4,76,94.8,76,96.3z M68.4,82.7l-0.2,0.4c-2.4,4-3.7,8.5-3.7,13.1c0,4.6,1.3,9.2,3.7,13.2l0.2,0.4L68,110
			c-2.4,1.3-5.1,2.1-7.8,2.1c-8.7,0-15.8-7.1-15.8-15.8c0-8.7,7.1-15.8,15.8-15.8c2.7,0,5.4,0.7,7.8,2.1L68.4,82.7z M89.8,119.3
			c-12.7,0-23.1-10.3-23.1-23.1c0-4.1,1.1-8.2,3.2-11.8l0.3-0.5l0.4,0.3c1.1,1,2.1,2.1,2.9,3.4l0.1,0.2l-0.1,0.2
			c-1.2,2.5-1.9,5.2-1.9,8c0,10,8.1,18.1,18.1,18.1c10,0,18.1-8.1,18.1-18.1c0-10-8.1-18.1-18.1-18.1c-3.2,0-6.4,0.9-9.2,2.5
			l-0.3,0.2l-0.2-0.3c-0.8-1.1-1.8-2.1-2.8-3l-0.4-0.4l0.5-0.3c3.7-2.4,8-3.7,12.5-3.7c12.7,0,23.1,10.3,23.1,23.1
			S102.5,119.3,89.8,119.3z"/>
		<g>
			
				<linearGradient id="SVGID_00000054249135864872223110000011793150834655087766_" gradientUnits="userSpaceOnUse" x1="75.5336" y1="46.2973" x2="82.9359" y2="46.2973">
				<stop  offset="0" style="stop-color:#FFF2A6"/>
				<stop  offset="2.112336e-02" style="stop-color:#EDD682"/>
				<stop  offset="4.863281e-02" style="stop-color:#D9B75B"/>
				<stop  offset="7.576038e-02" style="stop-color:#C99F3B"/>
				<stop  offset="0.102" style="stop-color:#BE8E25"/>
				<stop  offset="0.1271" style="stop-color:#B78418"/>
				<stop  offset="0.1495" style="stop-color:#B58013"/>
				<stop  offset="0.2295" style="stop-color:#C5972C"/>
				<stop  offset="0.3197" style="stop-color:#D3AA42"/>
				<stop  offset="0.4075" style="stop-color:#DBB54F"/>
				<stop  offset="0.4892" style="stop-color:#DEB953"/>
				<stop  offset="0.5803" style="stop-color:#DBB54F"/>
				<stop  offset="0.6752" style="stop-color:#D3AA42"/>
				<stop  offset="0.7715" style="stop-color:#C6982E"/>
				<stop  offset="0.8616" style="stop-color:#B58013"/>
				<stop  offset="0.8837" style="stop-color:#B78317"/>
				<stop  offset="0.9066" style="stop-color:#BD8D24"/>
				<stop  offset="0.93" style="stop-color:#C89D38"/>
				<stop  offset="0.9536" style="stop-color:#D6B456"/>
				<stop  offset="0.9771" style="stop-color:#E9D07B"/>
				<stop  offset="1" style="stop-color:#FFF2A6"/>
			</linearGradient>
			<path style="fill:url(#SVGID_00000054249135864872223110000011793150834655087766_);" d="M82.6,42.9c-0.2-0.2-0.5-0.3-0.8-0.3
				c-0.3,0-0.6,0.1-0.8,0.3L75.9,48c-0.2,0.2-0.3,0.5-0.3,0.8c0,0.3,0.1,0.6,0.3,0.8c0.4,0.4,1.2,0.4,1.6,0l5.1-5.1
				C83,44.1,83,43.4,82.6,42.9z"/>
			
				<linearGradient id="SVGID_00000091695271934136294250000002007849386819038382_" gradientUnits="userSpaceOnUse" x1="59.0824" y1="38.1755" x2="61.6947" y2="38.1755">
				<stop  offset="0" style="stop-color:#FFF2A6"/>
				<stop  offset="2.112336e-02" style="stop-color:#EDD682"/>
				<stop  offset="4.863281e-02" style="stop-color:#D9B75B"/>
				<stop  offset="7.576038e-02" style="stop-color:#C99F3B"/>
				<stop  offset="0.102" style="stop-color:#BE8E25"/>
				<stop  offset="0.1271" style="stop-color:#B78418"/>
				<stop  offset="0.1495" style="stop-color:#B58013"/>
				<stop  offset="0.2295" style="stop-color:#C5972C"/>
				<stop  offset="0.3197" style="stop-color:#D3AA42"/>
				<stop  offset="0.4075" style="stop-color:#DBB54F"/>
				<stop  offset="0.4892" style="stop-color:#DEB953"/>
				<stop  offset="0.5803" style="stop-color:#DBB54F"/>
				<stop  offset="0.6752" style="stop-color:#D3AA42"/>
				<stop  offset="0.7715" style="stop-color:#C6982E"/>
				<stop  offset="0.8616" style="stop-color:#B58013"/>
				<stop  offset="0.8837" style="stop-color:#B78317"/>
				<stop  offset="0.9066" style="stop-color:#BD8D24"/>
				<stop  offset="0.93" style="stop-color:#C89D38"/>
				<stop  offset="0.9536" style="stop-color:#D6B456"/>
				<stop  offset="0.9771" style="stop-color:#E9D07B"/>
				<stop  offset="1" style="stop-color:#FFF2A6"/>
			</linearGradient>
			<path style="fill:url(#SVGID_00000091695271934136294250000002007849386819038382_);" d="M61.7,34.6c0-0.6-0.7-1.1-1.3-1.1
				c-0.6,0-1.3,0.5-1.3,1.1v7.2c0,0.6,0.7,1.1,1.3,1.1c0.6,0,1.3-0.5,1.3-1.1V34.6z"/>
			
				<linearGradient id="SVGID_00000170252525353114096980000006147212740956400266_" gradientUnits="userSpaceOnUse" x1="37.5445" y1="46.2973" x2="44.9494" y2="46.2973">
				<stop  offset="0" style="stop-color:#FFF2A6"/>
				<stop  offset="2.112336e-02" style="stop-color:#EDD682"/>
				<stop  offset="4.863281e-02" style="stop-color:#D9B75B"/>
				<stop  offset="7.576038e-02" style="stop-color:#C99F3B"/>
				<stop  offset="0.102" style="stop-color:#BE8E25"/>
				<stop  offset="0.1271" style="stop-color:#B78418"/>
				<stop  offset="0.1495" style="stop-color:#B58013"/>
				<stop  offset="0.2295" style="stop-color:#C5972C"/>
				<stop  offset="0.3197" style="stop-color:#D3AA42"/>
				<stop  offset="0.4075" style="stop-color:#DBB54F"/>
				<stop  offset="0.4892" style="stop-color:#DEB953"/>
				<stop  offset="0.5803" style="stop-color:#DBB54F"/>
				<stop  offset="0.6752" style="stop-color:#D3AA42"/>
				<stop  offset="0.7715" style="stop-color:#C6982E"/>
				<stop  offset="0.8616" style="stop-color:#B58013"/>
				<stop  offset="0.8837" style="stop-color:#B78317"/>
				<stop  offset="0.9066" style="stop-color:#BD8D24"/>
				<stop  offset="0.93" style="stop-color:#C89D38"/>
				<stop  offset="0.9536" style="stop-color:#D6B456"/>
				<stop  offset="0.9771" style="stop-color:#E9D07B"/>
				<stop  offset="1" style="stop-color:#FFF2A6"/>
			</linearGradient>
			<path style="fill:url(#SVGID_00000170252525353114096980000006147212740956400266_);" d="M44.6,48l-5.1-5.1
				c-0.2-0.2-0.5-0.3-0.8-0.3c-0.3,0-0.6,0.1-0.8,0.3c-0.4,0.4-0.4,1.2,0,1.6l5.1,5.1c0.4,0.4,1.2,0.4,1.6,0
				c0.2-0.2,0.3-0.5,0.3-0.8C44.9,48.6,44.8,48.3,44.6,48z"/>
		</g>
	</g>
</g>
</svg>
