<?xml version="1.0" encoding="utf-8"?>
<!-- Generator: Adobe Illustrator 25.4.1, SVG Export Plug-In . SVG Version: 6.00 Build 0)  -->
<svg version="1.1" id="Capa_1" xmlns="http://www.w3.org/2000/svg" xmlns:xlink="http://www.w3.org/1999/xlink" x="0px" y="0px"
	 viewBox="0 0 150 150" style="enable-background:new 0 0 150 150;" xml:space="preserve">
<style type="text/css">
	.st0{fill-rule:evenodd;clip-rule:evenodd;fill:url(#SVGID_1_);}
</style>
<linearGradient id="SVGID_1_" gradientUnits="userSpaceOnUse" x1="43.1" y1="74.95" x2="106.8" y2="74.95">
	<stop  offset="0" style="stop-color:#FFF2A6"/>
	<stop  offset="2.112336e-02" style="stop-color:#EDD682"/>
	<stop  offset="4.863281e-02" style="stop-color:#D9B75B"/>
	<stop  offset="7.576038e-02" style="stop-color:#C99F3B"/>
	<stop  offset="0.102" style="stop-color:#BE8E25"/>
	<stop  offset="0.1271" style="stop-color:#B78418"/>
	<stop  offset="0.1495" style="stop-color:#B58013"/>
	<stop  offset="0.2295" style="stop-color:#C5972C"/>
	<stop  offset="0.3197" style="stop-color:#D3AA42"/>
	<stop  offset="0.4075" style="stop-color:#DBB54F"/>
	<stop  offset="0.4892" style="stop-color:#DEB953"/>
	<stop  offset="0.5803" style="stop-color:#DBB54F"/>
	<stop  offset="0.6752" style="stop-color:#D3AA42"/>
	<stop  offset="0.7715" style="stop-color:#C6982E"/>
	<stop  offset="0.8616" style="stop-color:#B58013"/>
	<stop  offset="0.8837" style="stop-color:#B78317"/>
	<stop  offset="0.9066" style="stop-color:#BD8D24"/>
	<stop  offset="0.93" style="stop-color:#C89D38"/>
	<stop  offset="0.9536" style="stop-color:#D6B456"/>
	<stop  offset="0.9771" style="stop-color:#E9D07B"/>
	<stop  offset="1" style="stop-color:#FFF2A6"/>
</linearGradient>
<path class="st0" d="M106.8,75.1c0,7.7,0,15.4,0,23.2c0,2.4-0.6,4.6-2.2,6.4c-1.9,2.2-4.5,3.1-7.3,3.1c-12.2,0-24.4,0-36.6,0
	c-2.7,0-5.4,0-8.1,0c-5.5,0-9.4-4-9.4-9.4c0-2.2,0-4.4,0-6.6c0-13.2-0.1-26.4-0.1-39.6c0-2.4,0.4-4.6,1.9-6.6c1.8-2.3,4.1-3.5,7-3.5
	c15.2,0,30.4,0,45.7,0c5.1,0,9,4.1,9,9.3C106.8,59.4,106.8,67.2,106.8,75.1z M49.9,70c0,0.3,0,0.5,0,0.8c0,3.3,0,6.7,0,10
	c0,5.5-0.1,11.1-0.1,16.6c0,2,0.7,2.7,2.7,2.7c0.1,0,0.2,0,0.3,0c14.9,0,29.8,0,44.6,0c0.3,0,0.6,0,0.8,0c1.2-0.1,1.9-0.7,2-1.9
	c0-0.3,0-0.6,0-0.8c0-5.3,0-10.5,0-15.8c0-3.7,0-7.4,0-11.1c0-0.4-0.1-0.7-0.6-0.7c-1.8,0-3.5,0-5.3,0c0,0.2,0,0.4,0,0.5
	c0.3,2.6,0.3,5.3-0.1,7.9c-1.1,6.5-4.4,11.5-10.4,14.4c-4.2,2-8.7,2.8-13.3,1.7c-8.4-2-16.2-10.2-15.2-21.1c0.1-1.1,0.3-2.1,0.4-3.2
	C53.8,70,51.9,70,49.9,70z M87.7,75.1c0-6.9-5.6-12.5-12.5-12.6c-6.9,0-12.6,5.5-12.6,12.3c0,7.1,5.6,12.8,12.5,12.8
	C82,87.7,87.7,82,87.7,75.1z M94,62.1c1.4,0,2.8,0,4.3,0c1.2,0,1.7-0.5,1.8-1.7c0.1-2,0.1-4,0.1-6.1c0-1,0-1.9-0.1-2.9
	c-0.1-0.9-0.6-1.4-1.5-1.5c-0.6-0.1-1.1-0.1-1.7-0.1c-2.3,0-4.7,0-7,0.1c-1.4,0-1.9,0.6-1.9,2c-0.1,2.8-0.1,5.5,0,8.3
	c0,1.4,0.6,1.9,2,1.9C91.3,62.1,92.6,62.1,94,62.1z"/>
</svg>
