<?xml version="1.0" encoding="utf-8"?>
<!-- Generator: Adobe Illustrator 25.4.1, SVG Export Plug-In . SVG Version: 6.00 Build 0)  -->
<svg version="1.1" id="Capa_1" xmlns="http://www.w3.org/2000/svg" xmlns:xlink="http://www.w3.org/1999/xlink" x="0px" y="0px"
	 viewBox="0 0 150 150" style="enable-background:new 0 0 150 150;" xml:space="preserve">
<style type="text/css">
	.st0{fill:url(#SVGID_1_);}
	.st1{fill:url(#SVGID_00000018236902520241320790000006581495382031590060_);}
	.st2{fill:url(#SVGID_00000075842023482019444900000002582635714328686485_);}
	.st3{fill:url(#SVGID_00000038375209159920865530000008399366151876952969_);}
	.st4{fill:url(#SVGID_00000142174180549225630070000000378375652474613661_);}
	.st5{fill:url(#SVGID_00000096751152852748659130000009842483609537239732_);}
	.st6{fill:url(#SVGID_00000183209496929633586320000010092388826837207680_);}
	.st7{fill:url(#SVGID_00000047769870539946528740000003834263459981293443_);}
	.st8{fill:url(#SVGID_00000060751368824357349890000018165938086928037037_);}
	.st9{fill:url(#SVGID_00000083771840191506079850000003674037075870594459_);}
</style>
<g>
	<g>
		<g>
			<linearGradient id="SVGID_1_" gradientUnits="userSpaceOnUse" x1="73.6321" y1="45.9824" x2="76.3669" y2="45.9824">
				<stop  offset="0" style="stop-color:#FFF2A6"/>
				<stop  offset="2.112336e-02" style="stop-color:#EDD682"/>
				<stop  offset="4.863281e-02" style="stop-color:#D9B75B"/>
				<stop  offset="7.576038e-02" style="stop-color:#C99F3B"/>
				<stop  offset="0.102" style="stop-color:#BE8E25"/>
				<stop  offset="0.1271" style="stop-color:#B78418"/>
				<stop  offset="0.1495" style="stop-color:#B58013"/>
				<stop  offset="0.2295" style="stop-color:#C5972C"/>
				<stop  offset="0.3197" style="stop-color:#D3AA42"/>
				<stop  offset="0.4075" style="stop-color:#DBB54F"/>
				<stop  offset="0.4892" style="stop-color:#DEB953"/>
				<stop  offset="0.5803" style="stop-color:#DBB54F"/>
				<stop  offset="0.6752" style="stop-color:#D3AA42"/>
				<stop  offset="0.7715" style="stop-color:#C6982E"/>
				<stop  offset="0.8616" style="stop-color:#B58013"/>
				<stop  offset="0.8837" style="stop-color:#B78317"/>
				<stop  offset="0.9066" style="stop-color:#BD8D24"/>
				<stop  offset="0.93" style="stop-color:#C89D38"/>
				<stop  offset="0.9536" style="stop-color:#D6B456"/>
				<stop  offset="0.9771" style="stop-color:#E9D07B"/>
				<stop  offset="1" style="stop-color:#FFF2A6"/>
			</linearGradient>
			<path class="st0" d="M75,51c0.8,0,1.4-0.6,1.4-1.4v-7.2c0-0.8-0.6-1.4-1.4-1.4c-0.8,0-1.4,0.6-1.4,1.4v7.2
				C73.6,50.4,74.2,51,75,51z"/>
			
				<linearGradient id="SVGID_00000088118626656781730390000015218792478208106687_" gradientUnits="userSpaceOnUse" x1="62.7684" y1="48.4702" x2="70.612" y2="48.4702">
				<stop  offset="0" style="stop-color:#FFF2A6"/>
				<stop  offset="2.112336e-02" style="stop-color:#EDD682"/>
				<stop  offset="4.863281e-02" style="stop-color:#D9B75B"/>
				<stop  offset="7.576038e-02" style="stop-color:#C99F3B"/>
				<stop  offset="0.102" style="stop-color:#BE8E25"/>
				<stop  offset="0.1271" style="stop-color:#B78418"/>
				<stop  offset="0.1495" style="stop-color:#B58013"/>
				<stop  offset="0.2295" style="stop-color:#C5972C"/>
				<stop  offset="0.3197" style="stop-color:#D3AA42"/>
				<stop  offset="0.4075" style="stop-color:#DBB54F"/>
				<stop  offset="0.4892" style="stop-color:#DEB953"/>
				<stop  offset="0.5803" style="stop-color:#DBB54F"/>
				<stop  offset="0.6752" style="stop-color:#D3AA42"/>
				<stop  offset="0.7715" style="stop-color:#C6982E"/>
				<stop  offset="0.8616" style="stop-color:#B58013"/>
				<stop  offset="0.8837" style="stop-color:#B78317"/>
				<stop  offset="0.9066" style="stop-color:#BD8D24"/>
				<stop  offset="0.93" style="stop-color:#C89D38"/>
				<stop  offset="0.9536" style="stop-color:#D6B456"/>
				<stop  offset="0.9771" style="stop-color:#E9D07B"/>
				<stop  offset="1" style="stop-color:#FFF2A6"/>
			</linearGradient>
			<path style="fill:url(#SVGID_00000088118626656781730390000015218792478208106687_);" d="M68.3,52c0.3,0.3,0.6,0.4,1,0.4
				c0.4,0,0.7-0.1,1-0.4c0.5-0.5,0.5-1.4,0-1.9l-5.1-5.1c-0.5-0.5-1.4-0.5-1.9,0c-0.5,0.5-0.5,1.4,0,1.9L68.3,52z"/>
			
				<linearGradient id="SVGID_00000005945503689858877050000015633968964599230647_" gradientUnits="userSpaceOnUse" x1="79.3848" y1="48.4685" x2="87.2284" y2="48.4685">
				<stop  offset="0" style="stop-color:#FFF2A6"/>
				<stop  offset="2.112336e-02" style="stop-color:#EDD682"/>
				<stop  offset="4.863281e-02" style="stop-color:#D9B75B"/>
				<stop  offset="7.576038e-02" style="stop-color:#C99F3B"/>
				<stop  offset="0.102" style="stop-color:#BE8E25"/>
				<stop  offset="0.1271" style="stop-color:#B78418"/>
				<stop  offset="0.1495" style="stop-color:#B58013"/>
				<stop  offset="0.2295" style="stop-color:#C5972C"/>
				<stop  offset="0.3197" style="stop-color:#D3AA42"/>
				<stop  offset="0.4075" style="stop-color:#DBB54F"/>
				<stop  offset="0.4892" style="stop-color:#DEB953"/>
				<stop  offset="0.5803" style="stop-color:#DBB54F"/>
				<stop  offset="0.6752" style="stop-color:#D3AA42"/>
				<stop  offset="0.7715" style="stop-color:#C6982E"/>
				<stop  offset="0.8616" style="stop-color:#B58013"/>
				<stop  offset="0.8837" style="stop-color:#B78317"/>
				<stop  offset="0.9066" style="stop-color:#BD8D24"/>
				<stop  offset="0.93" style="stop-color:#C89D38"/>
				<stop  offset="0.9536" style="stop-color:#D6B456"/>
				<stop  offset="0.9771" style="stop-color:#E9D07B"/>
				<stop  offset="1" style="stop-color:#FFF2A6"/>
			</linearGradient>
			<path style="fill:url(#SVGID_00000005945503689858877050000015633968964599230647_);" d="M80.8,52.4c0.3,0,0.7-0.1,1-0.4l5.1-5.1
				c0.5-0.5,0.5-1.4,0-1.9c-0.5-0.5-1.4-0.5-1.9,0l-5.1,5.1c-0.5,0.5-0.5,1.4,0,1.9C80.1,52.3,80.4,52.4,80.8,52.4z"/>
			
				<linearGradient id="SVGID_00000067923945019271883480000013788525915959373465_" gradientUnits="userSpaceOnUse" x1="66.1428" y1="72.1867" x2="68.8787" y2="72.1867">
				<stop  offset="0" style="stop-color:#FFF2A6"/>
				<stop  offset="2.112336e-02" style="stop-color:#EDD682"/>
				<stop  offset="4.863281e-02" style="stop-color:#D9B75B"/>
				<stop  offset="7.576038e-02" style="stop-color:#C99F3B"/>
				<stop  offset="0.102" style="stop-color:#BE8E25"/>
				<stop  offset="0.1271" style="stop-color:#B78418"/>
				<stop  offset="0.1495" style="stop-color:#B58013"/>
				<stop  offset="0.2295" style="stop-color:#C5972C"/>
				<stop  offset="0.3197" style="stop-color:#D3AA42"/>
				<stop  offset="0.4075" style="stop-color:#DBB54F"/>
				<stop  offset="0.4892" style="stop-color:#DEB953"/>
				<stop  offset="0.5803" style="stop-color:#DBB54F"/>
				<stop  offset="0.6752" style="stop-color:#D3AA42"/>
				<stop  offset="0.7715" style="stop-color:#C6982E"/>
				<stop  offset="0.8616" style="stop-color:#B58013"/>
				<stop  offset="0.8837" style="stop-color:#B78317"/>
				<stop  offset="0.9066" style="stop-color:#BD8D24"/>
				<stop  offset="0.93" style="stop-color:#C89D38"/>
				<stop  offset="0.9536" style="stop-color:#D6B456"/>
				<stop  offset="0.9771" style="stop-color:#E9D07B"/>
				<stop  offset="1" style="stop-color:#FFF2A6"/>
			</linearGradient>
			<path style="fill:url(#SVGID_00000067923945019271883480000013788525915959373465_);" d="M67.5,73.6c0.4,0,0.7-0.1,1-0.4
				c0.3-0.2,0.4-0.6,0.4-1c0-0.4-0.1-0.7-0.4-1c-0.3-0.3-0.6-0.4-1-0.4c-0.4,0-0.7,0.1-1,0.4c-0.3,0.3-0.4,0.6-0.4,1
				c0,0.4,0.1,0.7,0.4,1C66.8,73.4,67.2,73.6,67.5,73.6z"/>
			
				<linearGradient id="SVGID_00000066514955035545283510000011859186220458692482_" gradientUnits="userSpaceOnUse" x1="48.449" y1="86.5174" x2="101.5502" y2="86.5174">
				<stop  offset="0" style="stop-color:#FFF2A6"/>
				<stop  offset="2.112336e-02" style="stop-color:#EDD682"/>
				<stop  offset="4.863281e-02" style="stop-color:#D9B75B"/>
				<stop  offset="7.576038e-02" style="stop-color:#C99F3B"/>
				<stop  offset="0.102" style="stop-color:#BE8E25"/>
				<stop  offset="0.1271" style="stop-color:#B78418"/>
				<stop  offset="0.1495" style="stop-color:#B58013"/>
				<stop  offset="0.2295" style="stop-color:#C5972C"/>
				<stop  offset="0.3197" style="stop-color:#D3AA42"/>
				<stop  offset="0.4075" style="stop-color:#DBB54F"/>
				<stop  offset="0.4892" style="stop-color:#DEB953"/>
				<stop  offset="0.5803" style="stop-color:#DBB54F"/>
				<stop  offset="0.6752" style="stop-color:#D3AA42"/>
				<stop  offset="0.7715" style="stop-color:#C6982E"/>
				<stop  offset="0.8616" style="stop-color:#B58013"/>
				<stop  offset="0.8837" style="stop-color:#B78317"/>
				<stop  offset="0.9066" style="stop-color:#BD8D24"/>
				<stop  offset="0.93" style="stop-color:#C89D38"/>
				<stop  offset="0.9536" style="stop-color:#D6B456"/>
				<stop  offset="0.9771" style="stop-color:#E9D07B"/>
				<stop  offset="1" style="stop-color:#FFF2A6"/>
			</linearGradient>
			<path style="fill:url(#SVGID_00000066514955035545283510000011859186220458692482_);" d="M100.8,113.4l-7.5-3.5L91,96.7
				c1.8-0.6,3.4-1.8,4.5-3.4c1.4-2,1.9-4.4,1.5-6.8l-5.3-30.9c-0.1-0.7-0.8-1.2-1.6-1.1L75,57.2l-15.1-2.6c-0.7-0.1-1.5,0.4-1.6,1.1
				l-5.3,30.9c-0.8,4.5,1.9,8.8,6.1,10.2l-2.3,13.2l-7.5,3.5c-0.5,0.3-0.9,0.8-0.8,1.4c0.1,0.6,0.5,1.1,1.1,1.2l14.5,2.5
				c0.1,0,0.2,0,0.2,0c0,0,0,0,0,0c0.7,0,1.3-0.6,1.3-1.4c0-0.4-0.2-0.8-0.5-1l-5.8-5.8l2.3-13.2c0.1,0,0.1,0,0.2,0
				c4.4,0,8.2-3.2,8.9-7.5l4.2-24l4.2,24c0.8,4.4,4.5,7.5,8.9,7.5l0,0c0.1,0,0.1,0,0.2,0l2.3,13.2l-5.9,5.8
				c-0.4,0.4-0.5,1.1-0.3,1.6c0.2,0.5,0.7,0.7,1.2,0.7c0.1,0,0.2,0,0.2,0l14.5-2.5c0.6-0.1,1-0.6,1.1-1.2
				C101.6,114.2,101.3,113.7,100.8,113.4z M60.8,57.5l12.5,2.2l-1.1,6.5l-12.5-2.2L60.8,57.5z M60.8,94.3c-3.4-0.6-5.8-3.9-5.2-7.3
				l3.5-20.4l12.5,2.2l-3.5,20.4c-0.5,3.1-3.2,5.3-6.2,5.3C61.5,94.4,61.2,94.4,60.8,94.3z M60.3,115.1l-6-1l3.3-1.6L60.3,115.1z
				 M81.8,89.1l-3.5-20.4l12.5-2.2L94.4,87c0.3,1.7-0.1,3.4-1.1,4.7c-1,1.4-2.4,2.3-4.1,2.6c-0.4,0.1-0.7,0.1-1.1,0.1
				C85,94.4,82.4,92.2,81.8,89.1z M89.2,57.5l1.1,6.5l-12.5,2.2l-1.1-6.5L89.2,57.5z M89.7,115.1l2.6-2.6l3.3,1.6L89.7,115.1z"/>
			
				<linearGradient id="SVGID_00000103245910930126022820000008363394609123466931_" gradientUnits="userSpaceOnUse" x1="80.6686" y1="71.2473" x2="83.4077" y2="71.2473">
				<stop  offset="0" style="stop-color:#FFF2A6"/>
				<stop  offset="2.112336e-02" style="stop-color:#EDD682"/>
				<stop  offset="4.863281e-02" style="stop-color:#D9B75B"/>
				<stop  offset="7.576038e-02" style="stop-color:#C99F3B"/>
				<stop  offset="0.102" style="stop-color:#BE8E25"/>
				<stop  offset="0.1271" style="stop-color:#B78418"/>
				<stop  offset="0.1495" style="stop-color:#B58013"/>
				<stop  offset="0.2295" style="stop-color:#C5972C"/>
				<stop  offset="0.3197" style="stop-color:#D3AA42"/>
				<stop  offset="0.4075" style="stop-color:#DBB54F"/>
				<stop  offset="0.4892" style="stop-color:#DEB953"/>
				<stop  offset="0.5803" style="stop-color:#DBB54F"/>
				<stop  offset="0.6752" style="stop-color:#D3AA42"/>
				<stop  offset="0.7715" style="stop-color:#C6982E"/>
				<stop  offset="0.8616" style="stop-color:#B58013"/>
				<stop  offset="0.8837" style="stop-color:#B78317"/>
				<stop  offset="0.9066" style="stop-color:#BD8D24"/>
				<stop  offset="0.93" style="stop-color:#C89D38"/>
				<stop  offset="0.9536" style="stop-color:#D6B456"/>
				<stop  offset="0.9771" style="stop-color:#E9D07B"/>
				<stop  offset="1" style="stop-color:#FFF2A6"/>
			</linearGradient>
			<path style="fill:url(#SVGID_00000103245910930126022820000008363394609123466931_);" d="M82,69.9c-0.4,0-0.7,0.1-1,0.4
				c-0.3,0.3-0.4,0.6-0.4,1c0,0.4,0.1,0.7,0.4,1c0.3,0.3,0.6,0.4,1,0.4c0.4,0,0.7-0.1,1-0.4c0.3-0.3,0.4-0.6,0.4-1
				c0-0.4-0.1-0.7-0.4-1C82.8,70,82.4,69.9,82,69.9z"/>
			
				<linearGradient id="SVGID_00000062168394477536775130000015837267617393462957_" gradientUnits="userSpaceOnUse" x1="88.0514" y1="71.2479" x2="90.7851" y2="71.2479">
				<stop  offset="0" style="stop-color:#FFF2A6"/>
				<stop  offset="2.112336e-02" style="stop-color:#EDD682"/>
				<stop  offset="4.863281e-02" style="stop-color:#D9B75B"/>
				<stop  offset="7.576038e-02" style="stop-color:#C99F3B"/>
				<stop  offset="0.102" style="stop-color:#BE8E25"/>
				<stop  offset="0.1271" style="stop-color:#B78418"/>
				<stop  offset="0.1495" style="stop-color:#B58013"/>
				<stop  offset="0.2295" style="stop-color:#C5972C"/>
				<stop  offset="0.3197" style="stop-color:#D3AA42"/>
				<stop  offset="0.4075" style="stop-color:#DBB54F"/>
				<stop  offset="0.4892" style="stop-color:#DEB953"/>
				<stop  offset="0.5803" style="stop-color:#DBB54F"/>
				<stop  offset="0.6752" style="stop-color:#D3AA42"/>
				<stop  offset="0.7715" style="stop-color:#C6982E"/>
				<stop  offset="0.8616" style="stop-color:#B58013"/>
				<stop  offset="0.8837" style="stop-color:#B78317"/>
				<stop  offset="0.9066" style="stop-color:#BD8D24"/>
				<stop  offset="0.93" style="stop-color:#C89D38"/>
				<stop  offset="0.9536" style="stop-color:#D6B456"/>
				<stop  offset="0.9771" style="stop-color:#E9D07B"/>
				<stop  offset="1" style="stop-color:#FFF2A6"/>
			</linearGradient>
			<path style="fill:url(#SVGID_00000062168394477536775130000015837267617393462957_);" d="M90.4,72.2c0.3-0.3,0.4-0.6,0.4-1
				s-0.1-0.7-0.4-1c-0.3-0.3-0.6-0.4-1-0.4c-0.4,0-0.7,0.1-1,0.4c-0.3,0.3-0.4,0.6-0.4,1s0.1,0.7,0.4,1c0.3,0.3,0.6,0.4,1,0.4
				C89.8,72.6,90.1,72.5,90.4,72.2z"/>
			
				<linearGradient id="SVGID_00000139990143085488776510000007630784059937350329_" gradientUnits="userSpaceOnUse" x1="85.0251" y1="76.2846" x2="87.7599" y2="76.2846">
				<stop  offset="0" style="stop-color:#FFF2A6"/>
				<stop  offset="2.112336e-02" style="stop-color:#EDD682"/>
				<stop  offset="4.863281e-02" style="stop-color:#D9B75B"/>
				<stop  offset="7.576038e-02" style="stop-color:#C99F3B"/>
				<stop  offset="0.102" style="stop-color:#BE8E25"/>
				<stop  offset="0.1271" style="stop-color:#B78418"/>
				<stop  offset="0.1495" style="stop-color:#B58013"/>
				<stop  offset="0.2295" style="stop-color:#C5972C"/>
				<stop  offset="0.3197" style="stop-color:#D3AA42"/>
				<stop  offset="0.4075" style="stop-color:#DBB54F"/>
				<stop  offset="0.4892" style="stop-color:#DEB953"/>
				<stop  offset="0.5803" style="stop-color:#DBB54F"/>
				<stop  offset="0.6752" style="stop-color:#D3AA42"/>
				<stop  offset="0.7715" style="stop-color:#C6982E"/>
				<stop  offset="0.8616" style="stop-color:#B58013"/>
				<stop  offset="0.8837" style="stop-color:#B78317"/>
				<stop  offset="0.9066" style="stop-color:#BD8D24"/>
				<stop  offset="0.93" style="stop-color:#C89D38"/>
				<stop  offset="0.9536" style="stop-color:#D6B456"/>
				<stop  offset="0.9771" style="stop-color:#E9D07B"/>
				<stop  offset="1" style="stop-color:#FFF2A6"/>
			</linearGradient>
			<path style="fill:url(#SVGID_00000139990143085488776510000007630784059937350329_);" d="M86.4,74.9c-0.4,0-0.7,0.1-1,0.4
				c-0.3,0.3-0.4,0.6-0.4,1c0,0.4,0.1,0.7,0.4,1c0.3,0.3,0.6,0.4,1,0.4s0.7-0.1,1-0.4c0.3-0.3,0.4-0.6,0.4-1c0-0.4-0.1-0.7-0.4-1
				C87.1,75.1,86.8,74.9,86.4,74.9z"/>
			
				<linearGradient id="SVGID_00000160896614332368941070000000990830396431357109_" gradientUnits="userSpaceOnUse" x1="59.2128" y1="75.8297" x2="61.9508" y2="75.8297">
				<stop  offset="0" style="stop-color:#FFF2A6"/>
				<stop  offset="2.112336e-02" style="stop-color:#EDD682"/>
				<stop  offset="4.863281e-02" style="stop-color:#D9B75B"/>
				<stop  offset="7.576038e-02" style="stop-color:#C99F3B"/>
				<stop  offset="0.102" style="stop-color:#BE8E25"/>
				<stop  offset="0.1271" style="stop-color:#B78418"/>
				<stop  offset="0.1495" style="stop-color:#B58013"/>
				<stop  offset="0.2295" style="stop-color:#C5972C"/>
				<stop  offset="0.3197" style="stop-color:#D3AA42"/>
				<stop  offset="0.4075" style="stop-color:#DBB54F"/>
				<stop  offset="0.4892" style="stop-color:#DEB953"/>
				<stop  offset="0.5803" style="stop-color:#DBB54F"/>
				<stop  offset="0.6752" style="stop-color:#D3AA42"/>
				<stop  offset="0.7715" style="stop-color:#C6982E"/>
				<stop  offset="0.8616" style="stop-color:#B58013"/>
				<stop  offset="0.8837" style="stop-color:#B78317"/>
				<stop  offset="0.9066" style="stop-color:#BD8D24"/>
				<stop  offset="0.93" style="stop-color:#C89D38"/>
				<stop  offset="0.9536" style="stop-color:#D6B456"/>
				<stop  offset="0.9771" style="stop-color:#E9D07B"/>
				<stop  offset="1" style="stop-color:#FFF2A6"/>
			</linearGradient>
			<path style="fill:url(#SVGID_00000160896614332368941070000000990830396431357109_);" d="M60.6,74.5c-0.4,0-0.7,0.1-1,0.4
				c-0.3,0.3-0.4,0.6-0.4,1c0,0.4,0.1,0.7,0.4,1c0.3,0.3,0.6,0.4,1,0.4c0.4,0,0.7-0.1,1-0.4c0.3-0.3,0.4-0.6,0.4-1
				c0-0.4-0.1-0.7-0.4-1C61.3,74.6,60.9,74.5,60.6,74.5z"/>
			
				<linearGradient id="SVGID_00000011001958554847410740000004447711618062377119_" gradientUnits="userSpaceOnUse" x1="64.3695" y1="78.9807" x2="67.1053" y2="78.9807">
				<stop  offset="0" style="stop-color:#FFF2A6"/>
				<stop  offset="2.112336e-02" style="stop-color:#EDD682"/>
				<stop  offset="4.863281e-02" style="stop-color:#D9B75B"/>
				<stop  offset="7.576038e-02" style="stop-color:#C99F3B"/>
				<stop  offset="0.102" style="stop-color:#BE8E25"/>
				<stop  offset="0.1271" style="stop-color:#B78418"/>
				<stop  offset="0.1495" style="stop-color:#B58013"/>
				<stop  offset="0.2295" style="stop-color:#C5972C"/>
				<stop  offset="0.3197" style="stop-color:#D3AA42"/>
				<stop  offset="0.4075" style="stop-color:#DBB54F"/>
				<stop  offset="0.4892" style="stop-color:#DEB953"/>
				<stop  offset="0.5803" style="stop-color:#DBB54F"/>
				<stop  offset="0.6752" style="stop-color:#D3AA42"/>
				<stop  offset="0.7715" style="stop-color:#C6982E"/>
				<stop  offset="0.8616" style="stop-color:#B58013"/>
				<stop  offset="0.8837" style="stop-color:#B78317"/>
				<stop  offset="0.9066" style="stop-color:#BD8D24"/>
				<stop  offset="0.93" style="stop-color:#C89D38"/>
				<stop  offset="0.9536" style="stop-color:#D6B456"/>
				<stop  offset="0.9771" style="stop-color:#E9D07B"/>
				<stop  offset="1" style="stop-color:#FFF2A6"/>
			</linearGradient>
			<path style="fill:url(#SVGID_00000011001958554847410740000004447711618062377119_);" d="M67.1,79c0-0.4-0.1-0.7-0.4-1
				c-0.3-0.3-0.6-0.4-1-0.4c-0.4,0-0.7,0.1-1,0.4c-0.3,0.3-0.4,0.6-0.4,1s0.1,0.7,0.4,1c0.3,0.3,0.6,0.4,1,0.4c0.4,0,0.7-0.1,1-0.4
				C67,79.7,67.1,79.3,67.1,79z"/>
		</g>
	</g>
</g>
</svg>
